<svg width="248" height="40" viewBox="0 0 248 40" fill="none" xmlns="http://www.w3.org/2000/svg">
<path d="M171.623 3.80278L170.674 8.75378H164.874V8.75978H157.788V8.75378H149.005C148.995 8.66378 148.983 8.57378 148.97 8.48278C148.823 7.49324 148.446 6.55187 147.87 5.73378C147.256 4.89812 146.439 4.23283 145.496 3.80078L171.623 3.80278Z" fill="#003399"/>
<path d="M156.805 10.5547L153.426 28.1547H160.509L163.887 10.5547H156.805Z" fill="#003399"/>
<path d="M96.5574 18.8987L93.8744 3.80469H86.6094L91.7964 28.1667L96.5574 18.8987Z" fill="#003399"/>
<path d="M112.1 16.9877L109.249 3.80469H104.29L91.7891 28.1507V28.1667H97.6611L104.794 13.9897L107.562 25.8147L112.1 16.9877Z" fill="#003399"/>
<path d="M120.73 3.80469L108.215 28.1667H113.956L126.921 3.80469H120.73Z" fill="#003399"/>
<path d="M139.928 18.6753C140.326 18.5818 140.718 18.4643 141.102 18.3233C142.227 17.9213 143.265 17.3069 144.159 16.5133C145.641 15.1871 146.65 13.4127 147.031 11.4603C147.206 10.5746 147.229 9.66564 147.099 8.77227C146.967 7.89291 146.63 7.05684 146.116 6.33127C145.51 5.51894 144.693 4.88755 143.755 4.50527C142.524 4.0029 141.202 3.76443 139.873 3.80527H122.445L121.496 8.73227H121.277L127.168 8.73727H135.03V8.75527H135.762C137.472 8.75527 138.671 8.68727 139.251 9.11827C139.831 9.54927 140.01 10.3393 139.787 11.4993C139.694 12.1483 139.43 12.7609 139.022 13.2743C138.612 13.7116 138.073 14.0069 137.484 14.1173C136.574 14.2925 135.649 14.3692 134.723 14.3463H133.194L133.922 10.5583H126.822L123.443 28.1583H130.543L132.297 19.0223H133.633L137.069 28.1583H143.836L139.928 18.6753Z" fill="#003399"/>
<path d="M195.136 24.5588C194.753 24.7707 194.324 24.887 193.886 24.8978C193.694 24.9042 193.502 24.867 193.326 24.7891C193.15 24.7112 192.993 24.5945 192.868 24.4478C192.733 24.2633 192.642 24.0499 192.603 23.8244C192.563 23.5988 192.577 23.3673 192.642 23.1478C192.715 22.7599 192.87 22.392 193.096 22.0685C193.322 21.7451 193.615 21.4735 193.954 21.2718C194.599 20.8814 195.272 20.5398 195.967 20.2498L196.493 17.5078L196.093 17.6359C195.652 17.7752 195.003 17.9785 194.146 18.2458C192.893 18.6186 191.664 19.0702 190.467 19.5978C189.573 19.9962 188.765 20.5656 188.089 21.2739C187.427 21.9985 186.988 22.8989 186.825 23.8668C186.692 24.5326 186.712 25.2199 186.883 25.8769C187.074 26.5542 187.516 27.133 188.12 27.4948C188.963 27.9705 189.926 28.1934 190.892 28.1368C191.99 28.1343 193.072 27.8736 194.05 27.3758C194.269 27.2601 194.477 27.1263 194.673 26.9759L195.136 24.5588Z" fill="#003399"/>
<path d="M202.937 24.3166C202.843 24.3201 202.749 24.3017 202.664 24.2626C202.578 24.2236 202.502 24.1652 202.443 24.0919C202.384 24.0186 202.343 23.9325 202.322 23.8404C202.302 23.7484 202.304 23.6529 202.327 23.5616L203.794 15.9166C203.988 15.2283 203.994 14.5005 203.81 13.8094C203.627 13.1182 203.261 12.489 202.751 11.9876C201.769 11.0686 200.363 10.5956 197.006 10.5636V10.5586H191.712L190.973 14.4046H196.119C196.938 14.4616 197.468 14.6796 197.668 15.0826C197.912 15.6988 197.952 16.3773 197.78 17.0176H197.775L197.256 19.7176H197.261L196.487 23.7366H196.481L196.096 25.7366C196.014 26.0099 195.996 26.2983 196.043 26.5796C196.09 26.861 196.201 27.1278 196.368 27.3595C196.534 27.5913 196.751 27.7819 197.003 27.9166C197.254 28.0513 197.533 28.1266 197.818 28.1366H198.777H199.754H205.845L206.579 24.3096L202.937 24.3166Z" fill="#003399"/>
<path d="M237.095 16.6452C236.987 15.5388 236.634 14.4703 236.062 13.5172C235.477 12.5687 234.635 11.8058 233.633 11.3172C232.465 10.7727 231.186 10.5077 229.898 10.5432C228.649 10.5395 227.408 10.7589 226.236 11.1912C225.192 11.5858 224.219 12.1486 223.356 12.8572C222.819 12.2122 222.152 11.6872 221.398 11.3162C220.23 10.7716 218.951 10.5066 217.662 10.5422C216.413 10.5386 215.173 10.758 214 11.1902C212.792 11.6433 211.679 12.319 210.72 13.1822C209.734 14.0629 208.908 15.1081 208.279 16.2712C207.626 17.4577 207.165 18.7403 206.913 20.0712C206.887 20.2072 206.862 20.3482 206.845 20.4512L205.367 28.1512H210.915L212.55 19.6352C212.717 18.7214 213.202 17.8961 213.919 17.3059C214.636 16.7157 215.54 16.3987 216.468 16.4112C216.859 16.3795 217.251 16.4366 217.617 16.5781C217.982 16.7196 218.311 16.942 218.579 17.2285C218.846 17.515 219.046 17.8582 219.162 18.2326C219.278 18.6069 219.308 19.0026 219.249 19.3902L217.566 28.1512H223.166L224.681 20.2592C224.729 20.0112 224.768 19.7802 224.8 19.5592C224.977 18.6596 225.465 17.8508 226.178 17.2743C226.89 16.6979 227.784 16.3906 228.7 16.4062C229.091 16.3745 229.484 16.4316 229.849 16.5731C230.215 16.7146 230.543 16.937 230.811 17.2235C231.078 17.51 231.277 17.8532 231.394 18.2276C231.51 18.6019 231.54 18.9976 231.481 19.3852L229.799 28.1462H235.399L236.891 20.3882C237.165 19.1604 237.234 17.8956 237.095 16.6452Z" fill="#003399"/>
<path d="M167.675 20.9078H173.721H185.271L185.504 19.6948C185.94 17.9505 185.87 16.1182 185.304 14.4118C184.849 13.1525 183.947 12.1039 182.771 11.4648C181.621 10.8618 180.339 10.5526 179.041 10.5648C177.167 10.5284 175.31 10.9171 173.608 11.7018C172.091 12.4089 170.777 13.4872 169.787 14.8368C168.818 16.1849 168.157 17.7297 167.851 19.3618C167.754 19.7983 167.695 20.2422 167.673 20.6888C167.67 20.7628 167.675 20.8308 167.675 20.9078ZM175.406 15.2828C176.099 14.6308 177.017 14.2724 177.969 14.2828C178.373 14.2432 178.78 14.3141 179.147 14.4877C179.514 14.6613 179.827 14.9313 180.053 15.2688C180.474 16.0812 180.576 17.0223 180.337 17.9058H173.998C174.165 16.9013 174.659 15.9802 175.404 15.2858L175.406 15.2828Z" fill="#003399"/>
<path d="M174.028 22.2148H167.695C167.723 22.4658 167.748 22.7148 167.795 22.9608C168.002 23.9894 168.476 24.9455 169.169 25.7328C169.889 26.5344 170.795 27.1458 171.808 27.5128C172.962 27.9471 174.187 28.1591 175.42 28.1378C175.556 28.1378 175.691 28.1378 175.82 28.1318H178.402L179.252 23.7048H176.675C176.144 23.7001 175.623 23.5611 175.16 23.3005C174.697 23.04 174.308 22.6664 174.028 22.2148Z" fill="#003399"/>
<path d="M73.8686 0L63.7686 34.492C63.6353 34.9013 63.5059 35.2893 63.3806 35.656C62.4806 38.356 61.9146 39.865 60.5196 39.999H45.3086L51.4396 19.056L52.0346 17.026L57.0186 0H73.8686Z" fill="url(#paint0_linear_163_61)"/>
<path d="M63.3812 35.5907C62.4812 38.3287 61.9153 39.8627 60.5203 39.9987H58.3632L57.1782 38.9557L51.4332 18.7397L51.4102 18.6567L52.0283 16.6797L52.0833 16.8597C52.1353 17.031 52.1876 17.202 52.2402 17.3727C52.3222 17.6394 52.4049 17.906 52.4882 18.1727C52.5976 18.5234 52.7073 18.874 52.8173 19.2247C52.9506 19.644 53.0839 20.0637 53.2172 20.4837C53.3686 20.959 53.5206 21.4337 53.6732 21.9077C53.8399 22.4237 54.0066 22.9397 54.1732 23.4557C54.3519 23.9984 54.5329 24.541 54.7163 25.0837C54.9029 25.641 55.091 26.1977 55.2803 26.7537C55.4696 27.3097 55.6622 27.8664 55.8582 28.4237C56.0496 28.9664 56.2433 29.509 56.4393 30.0517C56.6266 30.567 56.8179 31.0807 57.0133 31.5927C57.1939 32.0661 57.3782 32.538 57.5662 33.0087C57.7356 33.4267 57.9099 33.8424 58.0892 34.2557C58.2432 34.6047 58.4023 34.9557 58.5723 35.2927C58.7527 35.7178 58.9987 36.1119 59.3013 36.4607C59.5919 36.7543 59.9615 36.9572 60.3652 37.0447C60.5854 37.0884 60.8116 37.0928 61.0333 37.0577C61.3488 37.0062 61.6532 36.901 61.9332 36.7467C62.4738 36.44 62.9625 36.0499 63.3812 35.5907Z" fill="url(#paint1_linear_163_61)"/>
<path d="M65.3576 29.506L73.8656 0H57.1836C57.7576 9.466 60.4666 20.972 65.3576 29.506Z" fill="url(#paint2_linear_163_61)"/>
<path d="M60.4666 40H43.6146C41.9936 39.849 41.4366 37.842 40.2866 34.255C40.2566 34.162 38.6986 28.87 36.9326 22.869L35.8716 19.269C33.8716 12.469 31.9396 5.901 31.8886 5.751C30.7346 2.157 30.1806 0.151 28.5586 0H45.3586C46.5796 0.113 47.1946 1.274 47.9136 3.367C48.1516 4.058 48.4006 4.851 48.6856 5.743C48.7856 6.054 57.0376 33.943 57.1386 34.251C58.2876 37.841 58.8446 39.848 60.4666 40Z" fill="url(#paint3_linear_163_61)"/>
<path d="M46.7252 33.0402C45.0812 27.0642 40.6112 20.3672 36.2812 20.3672C38.2963 27.3172 40.2513 34.0602 40.2812 34.1672C41.4342 37.8092 41.9891 39.8452 43.6101 39.9992H51.2262C49.3932 39.3172 47.5382 35.9932 46.7252 33.0402Z" fill="url(#paint4_linear_163_61)"/>
<path d="M47.9143 3.419C47.8942 3.37437 47.8715 3.33097 47.8463 3.289C47.6188 2.9114 47.2855 2.60884 46.8877 2.41883C46.4899 2.22881 46.045 2.15968 45.6083 2.22C45.1884 2.24997 44.7913 2.42209 44.4823 2.708C44.1992 3.00713 43.9671 3.3507 43.7953 3.725L43.7513 3.81C43.2713 4.742 42.8513 5.702 42.4513 6.674C42.0513 7.646 41.6943 8.64 41.3333 9.63C40.6333 11.555 39.9773 13.495 39.3463 15.443C38.7997 17.1223 38.2684 18.807 37.7524 20.497C37.4857 21.371 37.2217 22.247 36.9604 23.125L36.9344 23.213L35.5783 24.538C35.5143 24.538 35.7223 21.573 35.8713 19.555C35.9483 18.513 36.0074 17.724 36.0074 17.724L39.6553 5.832L42.4253 1.332L43.5963 0H45.3594C46.5784 0.115 47.1953 1.294 47.9143 3.419Z" fill="url(#paint5_linear_163_61)"/>
<path d="M28.56 40H13.346C11.971 39.872 11.4 38.4 10.523 35.772C10.3897 35.372 10.2477 34.946 10.097 34.494L0 0H16.851L21.8 16.9L21.945 17.4L28.56 40Z" fill="url(#paint6_linear_163_61)"/>
<path d="M22.3784 18.6586L22.3554 18.7417L16.6104 38.9587L15.4254 40.0017H13.3464C11.9714 39.8717 11.4004 38.3737 10.5234 35.7097C10.9142 36.1222 11.3649 36.4735 11.8604 36.7517C12.1405 36.906 12.4449 37.0111 12.7604 37.0627C12.9825 37.0978 13.2089 37.0934 13.4294 37.0497C13.8329 36.9622 14.2022 36.7593 14.4924 36.4657C14.7953 36.1171 15.0414 35.7229 15.2214 35.2977C15.3914 34.9587 15.5504 34.6097 15.7044 34.2607C15.8851 33.8473 16.0598 33.4317 16.2284 33.0137C16.4184 32.5437 16.6031 32.0717 16.7824 31.5977C16.9777 31.0857 17.1688 30.572 17.3554 30.0567C17.5554 29.514 17.7491 28.9713 17.9364 28.4287C18.1364 27.8727 21.8164 16.7527 21.8364 16.6797L21.9454 17.0577L22.3784 18.6586Z" fill="url(#paint7_linear_163_61)"/>
<path d="M9.481 32.873C10.4712 23.1225 13.4905 13.687 18.345 5.173L16.851 0H0L9.481 32.873Z" fill="url(#paint8_linear_163_61)"/>
<path d="M41.9764 5.745C41.8764 6.056 33.6474 34.045 33.5764 34.254C32.4234 37.842 31.8694 39.848 30.2474 39.999H13.3984C15.0194 39.848 15.5764 37.842 16.7274 34.254C16.8274 33.943 25.0794 6.054 25.1794 5.745C26.3324 2.159 26.8864 0.152 28.5084 0H45.3084C43.6844 0.151 43.1294 2.158 41.9764 5.745Z" fill="url(#paint9_linear_163_61)"/>
<path d="M21.4084 40C23.4764 36.14 25.1474 32.1 27.0534 28.151C29.2213 23.6921 31.8751 19.4863 34.9664 15.61C36.8564 13.2648 38.8839 11.0338 41.0384 8.929C41.5984 7.029 41.9584 5.809 41.9794 5.746C43.1294 2.158 43.6844 0.151 45.3084 0H28.5084C26.8864 0.151 26.3304 2.158 25.1794 5.745C25.0794 6.056 16.8274 33.945 16.7274 34.254C15.5744 37.842 15.0194 39.848 13.3984 39.999L21.4084 40Z" fill="url(#paint10_linear_163_61)"/>
<path d="M93.9071 35.1779L95.5761 32.0569H96.0051L94.1051 35.5569V37.7569H93.6951V35.5839L91.7891 32.0569H92.2451L93.9071 35.1779ZM105.441 34.9009C105.484 35.6754 105.242 36.4388 104.762 37.0479C104.53 37.3119 104.24 37.5201 103.916 37.6569C103.592 37.7937 103.241 37.8556 102.89 37.8379C102.539 37.8553 102.189 37.7933 101.866 37.6565C101.542 37.5197 101.254 37.3117 101.022 37.0479C100.541 36.436 100.3 35.6699 100.343 34.8929C100.299 34.1185 100.543 33.3552 101.028 32.7499C101.262 32.4887 101.551 32.2829 101.875 32.1476C102.198 32.0123 102.548 31.9509 102.898 31.9679C103.248 31.9499 103.598 32.0112 103.922 32.1473C104.245 32.2834 104.534 32.4907 104.766 32.7539C105.245 33.3637 105.485 34.127 105.441 34.9009ZM100.776 34.9009C100.733 35.5764 100.926 36.2459 101.322 36.7949C101.514 37.0204 101.755 37.1982 102.027 37.3143C102.299 37.4304 102.595 37.4816 102.89 37.4639C103.186 37.4824 103.482 37.4322 103.755 37.3172C104.028 37.2021 104.271 37.0254 104.464 36.8009C104.86 36.2499 105.053 35.5782 105.008 34.9009C105.053 34.2267 104.861 33.558 104.464 33.0109C104.271 32.7885 104.029 32.6136 103.758 32.4996C103.486 32.3857 103.192 32.3358 102.898 32.3539C102.603 32.3367 102.308 32.3876 102.036 32.5025C101.764 32.6175 101.521 32.7935 101.328 33.0169C100.928 33.5604 100.733 34.2275 100.776 34.9009ZM114.776 32.0569V35.7469C114.792 36.0286 114.75 36.3105 114.652 36.575C114.554 36.8395 114.402 37.0809 114.206 37.2839C113.991 37.4768 113.74 37.625 113.468 37.7201C113.195 37.8152 112.906 37.8553 112.618 37.8379C112.336 37.8546 112.053 37.8139 111.788 37.7184C111.522 37.6228 111.278 37.4743 111.071 37.2819C110.879 37.0742 110.73 36.8297 110.635 36.5632C110.539 36.2967 110.498 36.0136 110.515 35.7309V32.0569H110.915V35.7469C110.901 35.9801 110.934 36.2138 111.012 36.4339C111.091 36.654 111.213 36.8561 111.371 37.0279C111.544 37.1875 111.748 37.3104 111.97 37.3891C112.191 37.4678 112.427 37.5008 112.662 37.4859C112.892 37.5004 113.123 37.4679 113.34 37.3904C113.558 37.3129 113.757 37.1919 113.926 37.0349C114.081 36.8675 114.201 36.6705 114.278 36.4557C114.355 36.2409 114.388 36.0128 114.375 35.7849V32.0559L114.776 32.0569ZM120.561 35.2749V37.7599H120.161V32.0599H121.518C122.069 32.0176 122.619 32.1551 123.086 32.4519C123.259 32.5939 123.395 32.7751 123.483 32.9803C123.571 33.1856 123.609 33.409 123.593 33.6319C123.605 33.9788 123.499 34.3195 123.293 34.5989C123.057 34.8835 122.734 35.0825 122.374 35.1649L123.923 37.7649H123.447L121.976 35.2799L120.561 35.2749ZM120.561 34.9319H121.649C122.048 34.9567 122.444 34.843 122.769 34.6099C122.905 34.4936 123.012 34.3472 123.082 34.1823C123.151 34.0173 123.181 33.8385 123.169 33.6599C123.185 33.4822 123.157 33.3034 123.09 33.1384C123.022 32.9734 122.915 32.8272 122.779 32.7119C122.397 32.481 121.952 32.3761 121.507 32.4119H120.563L120.561 34.9319ZM139.198 37.7599H138.87L137.618 33.3599C137.514 32.9986 137.436 32.7022 137.384 32.4709C137.343 32.6969 137.284 32.9569 137.207 33.2509C137.13 33.5449 136.711 35.0479 135.949 37.7599H135.614L134.046 32.0599H134.463L135.463 35.7339C135.502 35.8819 135.539 36.0192 135.572 36.1459C135.605 36.2726 135.636 36.3909 135.664 36.5009C135.691 36.6116 135.716 36.7182 135.738 36.8209C135.76 36.9236 135.78 37.0269 135.798 37.1309C135.861 36.7776 135.994 36.2406 136.198 35.5199L137.173 32.0599H137.614L138.757 36.0309C138.89 36.4889 138.985 36.8582 139.042 37.1389C139.076 36.9516 139.12 36.7516 139.173 36.5389C139.226 36.3262 139.626 34.8322 140.373 32.0569H140.773L139.198 37.7599ZM150.408 34.9009C150.451 35.6754 150.209 36.4388 149.729 37.0479C149.497 37.3119 149.207 37.5201 148.883 37.6569C148.559 37.7937 148.208 37.8556 147.857 37.8379C147.506 37.8553 147.156 37.7933 146.833 37.6565C146.509 37.5197 146.221 37.3117 145.989 37.0479C145.508 36.436 145.267 35.6699 145.31 34.8929C145.266 34.1185 145.51 33.3552 145.995 32.7499C146.229 32.4887 146.518 32.2829 146.842 32.1476C147.165 32.0123 147.515 31.9509 147.865 31.9679C148.215 31.9499 148.565 32.0112 148.889 32.1473C149.212 32.2834 149.501 32.4907 149.733 32.7539C150.213 33.3632 150.454 34.1265 150.412 34.9009H150.408ZM145.743 34.9009C145.7 35.5764 145.893 36.2459 146.289 36.7949C146.481 37.0204 146.722 37.1982 146.994 37.3143C147.266 37.4304 147.562 37.4816 147.857 37.4639C148.153 37.4824 148.449 37.4322 148.722 37.3172C148.995 37.2021 149.238 37.0254 149.431 36.8009C149.827 36.2499 150.02 35.5782 149.975 34.9009C150.02 34.2267 149.827 33.558 149.431 33.0109C149.238 32.7885 148.996 32.6135 148.725 32.4995C148.453 32.3856 148.159 32.3358 147.865 32.3539C147.57 32.3367 147.275 32.3876 147.003 32.5025C146.731 32.6175 146.488 32.7935 146.295 33.0169C145.897 33.5609 145.703 34.228 145.747 34.9009H145.743ZM155.951 35.2749V37.7599H155.551V32.0599H156.908C157.459 32.0176 158.009 32.1551 158.476 32.4519C158.649 32.5939 158.785 32.7751 158.873 32.9803C158.961 33.1856 158.999 33.409 158.983 33.6319C158.995 33.9788 158.889 34.3195 158.683 34.5989C158.447 34.8835 158.124 35.0824 157.764 35.1649L159.313 37.7649H158.837L157.366 35.2799L155.951 35.2749ZM155.951 34.9319H157.039C157.438 34.9565 157.833 34.8428 158.158 34.6099C158.294 34.4936 158.401 34.3472 158.471 34.1823C158.54 34.0173 158.57 33.8385 158.558 33.6599C158.574 33.4822 158.546 33.3034 158.479 33.1384C158.411 32.9734 158.304 32.8272 158.168 32.7119C157.786 32.481 157.341 32.3761 156.896 32.4119H155.952L155.951 34.9319ZM167.969 37.7599H167.489L165.301 34.7489L164.54 35.4199V37.7599H164.14V32.0599H164.54V35.0249L165.172 34.3929L167.407 32.0599H167.914L165.577 34.4709L167.969 37.7599ZM181.953 33.6949C181.967 33.9357 181.923 34.1764 181.826 34.3969C181.728 34.6175 181.579 34.8115 181.391 34.9629C180.925 35.284 180.365 35.4393 179.8 35.4039H178.918V37.7599H178.518V32.0599H179.918C181.277 32.0579 181.956 32.6032 181.956 33.6959L181.953 33.6949ZM178.918 35.0599H179.702C180.188 35.0993 180.674 34.9883 181.095 34.7419C181.245 34.6176 181.362 34.4587 181.437 34.2789C181.512 34.0991 181.542 33.9038 181.524 33.7099C181.538 33.5266 181.509 33.3425 181.438 33.1727C181.368 33.0029 181.258 32.8522 181.118 32.7329C180.745 32.4924 180.304 32.3807 179.862 32.4149H178.918V35.0599ZM189.774 35.7469H187.46L186.66 37.7599H186.219L188.513 32.0339H188.767L191.014 37.7599H190.569L189.774 35.7469ZM187.604 35.3839H189.644L188.868 33.3279C188.801 33.1666 188.723 32.9429 188.634 32.6569C188.57 32.8874 188.494 33.1142 188.404 33.3359L187.604 35.3839ZM196.057 35.2709V37.7559H195.657V32.0559H197.014C197.565 32.0136 198.115 32.1511 198.582 32.4479C198.755 32.5899 198.891 32.7711 198.979 32.9763C199.067 33.1816 199.105 33.405 199.089 33.6279C199.101 33.9748 198.995 34.3155 198.789 34.5949C198.553 34.8795 198.23 35.0785 197.87 35.1609L199.419 37.7609H198.943L197.472 35.2759L196.057 35.2709ZM196.057 34.9279H197.145C197.544 34.9525 197.939 34.8388 198.264 34.6059C198.4 34.4896 198.507 34.3432 198.577 34.1783C198.646 34.0133 198.676 33.8345 198.664 33.6559C198.68 33.4782 198.652 33.2993 198.585 33.1344C198.517 32.9694 198.41 32.8231 198.274 32.7079C197.892 32.477 197.447 32.3721 197.002 32.4079H196.058L196.057 34.9279ZM205.727 37.7559H205.327V32.4279H203.474V32.0539H207.581V32.4279H205.728L205.727 37.7559ZM216.407 37.7559H216.007L212.629 32.6929H212.598C212.629 33.2929 212.645 33.7479 212.645 34.0579V37.7579H212.263V32.0579H212.663L216.037 37.1129H216.06C216.037 36.6462 216.025 36.2016 216.025 35.7789V32.0579H216.411L216.407 37.7559ZM224.973 37.7559H221.856V32.0559H224.973V32.4229H222.254V34.5839H224.821V34.9509H222.254V37.3969H224.973V37.7559ZM230.496 35.2709V37.7559H230.096V32.0559H231.453C232.004 32.0136 232.554 32.1511 233.021 32.4479C233.194 32.5899 233.33 32.7711 233.418 32.9763C233.506 33.1816 233.544 33.405 233.528 33.6279C233.54 33.9748 233.434 34.3155 233.228 34.5949C232.992 34.8795 232.669 35.0785 232.309 35.1609L233.858 37.7609H233.382L231.911 35.2759L230.496 35.2709ZM230.496 34.9279H231.589C231.988 34.9527 232.384 34.839 232.709 34.6059C232.845 34.4896 232.952 34.3432 233.021 34.1782C233.091 34.0133 233.121 33.8345 233.109 33.6559C233.125 33.4782 233.097 33.2993 233.03 33.1344C232.962 32.9694 232.855 32.8231 232.719 32.7079C232.337 32.477 231.892 32.3721 231.447 32.4079H230.503L230.496 34.9279Z" fill="#003399"/>
<path d="M247.277 7.95876C247.276 7.25775 246.996 6.5859 246.501 6.09021C246.005 5.59452 245.333 5.31534 244.632 5.31375C243.931 5.3156 243.26 5.59487 242.764 6.0905C242.268 6.58614 241.989 7.25783 241.987 7.95876C241.987 8.66026 242.266 9.33302 242.762 9.82905C243.258 10.3251 243.931 10.6037 244.632 10.6037C244.98 10.6039 245.324 10.5355 245.645 10.4023C245.966 10.2692 246.258 10.0739 246.503 9.82775C246.582 9.74964 246.655 9.66682 246.723 9.57975C247.084 9.11581 247.28 8.5446 247.279 7.95676L247.277 7.95876ZM243.45 9.31475V6.51476H244.889C245.095 6.50693 245.301 6.52985 245.5 6.58276C245.639 6.62706 245.758 6.7165 245.839 6.83676C245.928 6.97027 245.974 7.12832 245.968 7.28876C245.974 7.42498 245.943 7.56019 245.877 7.67972C245.811 7.79925 245.714 7.89853 245.596 7.96675C245.502 8.01838 245.401 8.05515 245.296 8.07575C245.376 8.09829 245.452 8.13195 245.522 8.17575C245.573 8.21932 245.618 8.26828 245.658 8.32176C245.704 8.37596 245.744 8.43419 245.779 8.49575L246.197 9.30576H245.22L244.759 8.45175C244.722 8.36984 244.669 8.29635 244.602 8.23576C244.541 8.19158 244.467 8.1678 244.391 8.16776H244.315V9.30175H243.454L243.45 9.31475ZM244.318 7.65176H244.682C244.76 7.64608 244.836 7.63336 244.911 7.61376C244.967 7.60323 245.017 7.5722 245.051 7.52676C245.092 7.47186 245.111 7.40401 245.106 7.33591C245.1 7.2678 245.07 7.20411 245.02 7.15676C244.924 7.09767 244.81 7.07202 244.697 7.08376H244.318V7.65176ZM247.997 7.95876C247.997 8.85149 247.642 9.70759 247.011 10.3389C246.38 10.9703 245.524 11.3252 244.631 11.3257C243.739 11.3255 242.883 10.9707 242.252 10.3395C241.621 9.70831 241.266 8.8523 241.266 7.95976C241.266 7.51765 241.353 7.07984 241.522 6.67134C241.691 6.26284 241.939 5.89166 242.252 5.57905C242.564 5.26644 242.935 5.01851 243.344 4.84944C243.752 4.68038 244.19 4.59349 244.632 4.59375C245.074 4.59336 245.512 4.68008 245.921 4.84895C246.329 5.01782 246.7 5.26553 247.013 5.57793C247.326 5.89033 247.574 6.2613 247.743 6.66964C247.913 7.07798 248 7.51569 248 7.95776L247.997 7.95876Z" fill="#003399"/>
<defs>
<linearGradient id="paint0_linear_163_61" x1="45.3086" y1="19.9995" x2="73.8686" y2="19.9995" gradientUnits="userSpaceOnUse">
<stop stop-color="#6ABDBD"/>
<stop offset="1" stop-color="#117F7C"/>
</linearGradient>
<linearGradient id="paint1_linear_163_61" x1="51.4102" y1="28.3392" x2="63.3812" y2="28.3392" gradientUnits="userSpaceOnUse">
<stop stop-color="#579D9E"/>
<stop offset="1" stop-color="#00615E"/>
</linearGradient>
<linearGradient id="paint2_linear_163_61" x1="54.0307" y1="20.3001" x2="79.6187" y2="14.0336" gradientUnits="userSpaceOnUse">
<stop stop-color="#6ABDBD"/>
<stop offset="1" stop-color="#117F7C"/>
</linearGradient>
<linearGradient id="paint3_linear_163_61" x1="46.4909" y1="-4.96" x2="41.255" y2="37.045" gradientUnits="userSpaceOnUse">
<stop stop-color="#FF0077"/>
<stop offset="1" stop-color="#C60264"/>
</linearGradient>
<linearGradient id="paint4_linear_163_61" x1="211.122" y1="-53.5276" x2="238.128" y2="-53.5276" gradientUnits="userSpaceOnUse">
<stop stop-color="#FF0077"/>
<stop offset="1" stop-color="#C60264"/>
</linearGradient>
<linearGradient id="paint5_linear_163_61" x1="35.5664" y1="12.269" x2="47.9143" y2="12.269" gradientUnits="userSpaceOnUse">
<stop stop-color="#FF0077"/>
<stop offset="1" stop-color="#79003B"/>
</linearGradient>
<linearGradient id="paint6_linear_163_61" x1="0.285599" y1="-8.56" x2="17.8065" y2="9.26357" gradientUnits="userSpaceOnUse">
<stop stop-color="#A7C62A"/>
<stop offset="1" stop-color="#6F8200"/>
</linearGradient>
<linearGradient id="paint7_linear_163_61" x1="16.5221" y1="22.5102" x2="15.3321" y2="43.2161" gradientUnits="userSpaceOnUse">
<stop stop-color="#718B32"/>
<stop offset="1" stop-color="#3C4E1F"/>
</linearGradient>
<linearGradient id="paint8_linear_163_61" x1="7.81497" y1="-9.96052" x2="22.1138" y2="31.3993" gradientUnits="userSpaceOnUse">
<stop stop-color="#A7C62A"/>
<stop offset="1" stop-color="#6F8200"/>
</linearGradient>
<linearGradient id="paint9_linear_163_61" x1="26.3539" y1="-9.67976" x2="33.0124" y2="32.2609" gradientUnits="userSpaceOnUse">
<stop stop-color="#FDA037"/>
<stop offset="1" stop-color="#C96400"/>
</linearGradient>
<linearGradient id="paint10_linear_163_61" x1="6.12296" y1="-0.28" x2="83.2075" y2="42.5262" gradientUnits="userSpaceOnUse">
<stop stop-color="#FDA037"/>
<stop offset="1" stop-color="#C96400"/>
</linearGradient>
</defs>
</svg>
